<svg xmlns="http://www.w3.org/2000/svg" width="248" height="147" viewBox="0 0 248 147">
<g>
<path d="M 173.89 67.75 C172.98,70.18 169.23,70.87 168.51,68.75 C167.57,65.96 166.00,55.39 166.00,51.82 C166.00,47.37 164.57,46.98 159.04,49.93 C156.38,51.34 155.22,52.88 154.04,56.56 C152.51,61.32 150.36,63.40 149.61,60.83 C149.40,60.10 148.71,57.60 148.08,55.28 C147.39,52.71 145.51,49.72 143.25,47.59 C140.03,44.55 139.79,44.02 141.35,43.42 C142.34,43.04 144.93,43.26 147.10,43.91 C150.84,45.03 151.28,44.92 155.60,41.82 L 160.15 38.55 L 151.90 30.97 C143.99,23.70 142.59,21.00 146.74,21.00 C147.63,21.00 153.46,23.49 159.68,26.52 L 171.00 32.05 L 175.57 29.97 C180.56,27.69 187.06,27.64 187.79,29.86 C188.04,30.62 185.55,33.75 182.22,36.87 L 176.20 42.51 L 175.47 54.01 C175.06,60.33 174.35,66.51 173.89,67.75 ZM 20.32 133.61 C20.85,136.88 20.76,137.00 17.64,137.00 C15.86,137.00 13.86,136.46 13.20,135.80 C11.53,134.13 11.53,108.87 13.20,107.20 C13.93,106.47 17.48,106.00 22.28,106.00 C29.65,106.00 30.34,106.19 33.08,108.92 C36.68,112.53 37.09,118.35 34.00,122.27 C31.49,125.46 31.50,125.65 34.36,129.41 C35.65,131.11 37.03,133.51 37.42,134.75 C38.08,136.82 37.82,137.00 34.19,137.00 C31.90,137.00 29.72,136.37 29.00,135.50 C28.32,134.68 27.14,134.00 26.38,134.00 C25.62,134.00 25.00,133.13 25.00,132.07 C25.00,131.01 24.25,129.40 23.34,128.48 C21.79,126.94 21.61,126.94 20.73,128.52 C20.20,129.46 20.02,131.75 20.32,133.61 ZM 88.34 84.50 C80.21,86.62 74.82,86.43 71.63,83.93 C68.62,81.55 68.32,79.81 70.60,77.92 C71.94,76.80 72.34,76.86 73.15,78.30 C73.67,79.23 74.74,80.00 75.52,80.00 C76.29,80.00 83.81,77.70 92.22,74.90 C108.39,69.50 124.19,62.52 135.10,55.93 C142.03,51.75 145.37,51.52 144.80,55.27 C144.15,59.65 104.06,80.41 88.34,84.50 ZM 20.67 119.33 C21.70,120.37 25.00,120.12 25.00,119.00 C25.00,118.45 25.56,118.11 26.25,118.25 C26.95,118.39 27.50,117.52 27.50,116.25 C27.50,115.01 27.05,113.96 26.50,113.91 C25.95,113.87 24.94,113.37 24.26,112.80 C22.24,111.12 20.00,112.70 20.00,115.80 C20.00,117.38 20.30,118.97 20.67,119.33 ZM 180.67 33.33 C181.62,34.28 183.00,34.16 183.00,33.12 C183.00,32.64 182.32,31.68 181.50,31.00 C180.28,29.99 180.00,30.03 180.00,31.21 C180.00,32.01 180.30,32.97 180.67,33.33 Z" fill="rgb(19,130,201)"/>
<path d="M 79.50 66.00 C79.88,69.30 80.04,71.98 79.85,71.95 C79.12,71.84 74.46,68.49 73.69,67.52 C72.35,65.83 73.65,50.82 75.56,46.00 C80.19,34.26 88.97,25.14 99.75,20.87 C104.48,18.99 107.45,18.58 116.50,18.56 C126.83,18.53 127.91,18.72 134.30,21.73 C141.99,25.36 153.00,35.48 153.00,38.92 C153.00,42.77 147.56,41.01 143.10,35.71 C140.64,32.78 132.47,27.00 130.80,27.00 C130.36,27.00 130.00,27.62 130.00,28.38 C130.00,29.14 129.26,30.37 128.36,31.11 C127.46,31.86 125.90,34.39 124.90,36.74 C123.89,39.08 122.87,41.00 122.63,41.00 C122.39,41.00 120.30,39.42 118.00,37.50 C115.70,35.58 113.26,34.00 112.58,34.00 C111.12,34.00 107.55,30.22 106.68,27.75 C105.84,25.37 103.83,25.55 97.93,28.54 C92.57,31.25 92.26,33.00 97.12,33.00 C100.90,33.00 103.87,34.51 106.71,37.88 C109.41,41.07 109.54,42.57 107.25,43.95 C105.58,44.95 105.58,45.05 107.25,46.05 C108.50,46.80 109.00,48.38 109.00,51.57 C109.00,55.40 108.63,56.21 106.43,57.21 C105.02,57.86 103.25,59.87 102.48,61.69 C101.27,64.59 100.64,65.00 97.42,65.00 C94.77,65.00 93.08,65.70 91.41,67.50 C88.36,70.79 87.08,70.65 86.34,66.97 C85.77,64.12 81.89,60.00 79.77,60.00 C79.18,60.00 79.07,62.34 79.50,66.00 ZM 122.57 102.92 C115.88,104.14 115.37,104.13 108.71,102.86 C102.78,101.72 94.47,97.99 90.50,94.68 C87.05,91.80 87.37,91.05 92.24,90.61 C94.16,90.44 96.79,89.56 98.09,88.65 C101.91,85.98 103.74,86.58 100.92,89.58 C98.54,92.12 98.53,92.19 100.45,93.59 C103.57,95.87 108.95,96.99 116.78,96.99 C125.50,97.00 126.16,96.18 123.53,88.47 C121.77,83.28 121.78,83.17 123.93,79.36 C125.58,76.44 128.31,74.23 135.18,70.26 C143.02,65.72 144.74,65.09 147.95,65.61 C151.23,66.13 151.96,65.84 154.33,63.02 C155.80,61.28 157.00,59.18 157.00,58.36 C157.00,57.52 157.48,57.18 158.13,57.58 C158.89,58.05 159.06,60.42 158.66,64.79 C156.96,82.94 141.27,99.51 122.57,102.92 ZM 37.26 136.74 C37.87,136.46 37.79,135.90 37.42,134.75 C37.03,133.51 35.65,131.11 34.36,129.41 C31.50,125.65 31.49,125.46 34.00,122.27 C37.09,118.35 36.68,112.53 33.08,108.92 C30.34,106.19 29.65,106.00 22.28,106.00 C17.94,106.00 14.62,106.38 13.48,107.00 C13.74,106.53 13.78,105.87 13.55,105.27 C13.23,104.43 13.48,103.13 14.11,102.37 C15.43,100.78 19.60,100.54 20.50,102.00 C20.84,102.55 22.93,103.00 25.14,103.00 C28.90,103.00 29.26,102.74 30.73,99.00 C32.37,94.83 33.19,94.49 38.89,95.63 C41.27,96.10 41.78,96.56 40.98,97.52 C40.23,98.43 40.52,99.77 42.02,102.30 C44.49,106.49 42.98,108.42 40.04,104.83 C38.56,103.01 37.88,102.76 36.92,103.70 C35.95,104.65 36.36,105.54 38.85,107.86 C42.70,111.45 43.19,117.21 40.00,121.27 C38.84,122.75 38.21,123.55 38.18,124.36 C38.14,125.31 38.88,126.29 40.50,128.41 L 40.50 128.41 C41.88,130.21 43.00,132.14 43.00,132.69 C43.00,134.68 40.36,136.16 37.26,136.74 ZM 75.78 131.16 C75.16,133.02 71.68,134.73 69.50,134.24 C66.89,133.66 64.14,131.17 62.40,127.81 C61.08,125.25 60.87,125.19 58.25,126.55 C56.74,127.34 54.69,127.99 53.69,127.99 C52.70,128.00 52.16,128.45 52.50,129.00 C52.84,129.55 54.67,130.00 56.56,130.00 C58.45,130.00 60.00,130.36 60.00,130.80 C60.00,132.62 57.37,134.00 53.89,134.00 C48.86,134.00 44.53,129.17 45.41,124.57 C46.18,120.62 49.37,118.00 53.42,118.00 C56.65,118.00 61.00,121.02 61.00,123.26 C61.00,123.91 62.32,123.00 63.94,121.22 C66.17,118.79 67.73,118.00 70.32,118.00 C76.64,118.00 77.22,122.29 71.01,123.15 C65.88,123.87 67.84,130.00 73.21,130.00 C75.01,130.00 76.02,130.45 75.78,131.16 ZM 211.96 132.54 C211.28,133.37 209.05,134.00 206.83,134.00 C199.00,134.00 194.84,124.63 200.63,120.07 C204.88,116.73 210.68,117.67 213.05,122.09 C214.56,124.91 212.74,126.86 207.89,127.63 C205.74,127.98 204.30,128.68 204.65,129.24 C204.98,129.78 206.76,129.98 208.61,129.68 C212.34,129.07 213.81,130.32 211.96,132.54 ZM 126.96 132.54 C125.80,133.94 119.93,134.42 117.23,133.33 C115.55,132.65 113.00,127.64 113.00,125.00 C113.00,123.85 114.13,121.78 115.51,120.40 C118.93,116.98 124.45,117.36 127.31,121.20 C129.79,124.54 128.52,126.62 123.40,127.58 C118.86,128.44 118.93,130.43 123.48,129.70 C127.33,129.07 128.83,130.30 126.96,132.54 ZM 178.20 131.90 C175.63,134.94 172.00,135.35 168.25,133.04 C162.80,129.67 164.53,124.00 171.02,124.00 C172.30,124.00 172.99,123.50 172.73,122.75 C172.47,122.00 171.01,121.63 169.06,121.83 C166.38,122.10 165.88,121.84 166.17,120.33 C166.42,119.02 167.58,118.41 170.22,118.19 C175.02,117.79 178.00,119.43 178.00,122.47 C178.00,123.79 178.43,126.00 178.95,127.38 C179.69,129.30 179.51,130.36 178.20,131.90 ZM 100.80 128.24 C100.58,132.01 100.07,133.56 98.95,133.78 C96.47,134.25 96.00,133.05 96.00,126.31 C96.00,120.40 96.18,119.88 98.57,118.98 C102.32,117.55 106.24,117.78 108.82,119.59 C110.83,120.99 111.06,121.89 110.80,127.33 C110.55,132.42 110.18,133.54 108.62,133.84 C106.10,134.32 105.03,132.37 105.02,127.25 C105.00,123.71 104.67,123.00 103.05,123.00 C101.41,123.00 101.06,123.82 100.80,128.24 ZM 193.79 128.88 C191.38,133.74 188.31,135.28 186.16,132.69 C185.51,131.92 184.09,128.66 182.98,125.46 C181.41,120.89 181.25,119.46 182.24,118.83 C184.79,117.21 186.54,118.53 187.46,122.76 C188.29,126.60 189.64,126.17 190.80,121.70 C191.45,119.20 192.16,118.50 194.06,118.50 C196.13,118.50 196.47,118.94 196.29,121.38 C196.18,122.96 195.06,126.34 193.79,128.88 ZM 146.79 126.96 C146.57,131.84 146.12,133.55 144.98,133.77 C142.30,134.28 141.00,131.75 141.00,126.04 C141.00,121.23 140.70,120.34 138.75,119.49 C137.51,118.94 136.50,117.82 136.50,117.00 C136.50,115.82 138.17,115.44 144.33,115.21 C151.41,114.94 152.13,115.09 151.83,116.71 C151.64,117.69 150.50,118.94 149.28,119.47 C147.39,120.30 147.04,121.35 146.79,126.96 ZM 236.17 132.35 C234.03,134.28 226.97,134.57 225.20,132.80 C223.09,130.69 223.90,129.84 227.67,130.16 C231.93,130.53 233.59,128.32 229.42,127.82 C227.94,127.64 226.12,126.58 225.38,125.45 C224.23,123.71 224.26,123.08 225.57,121.20 C226.79,119.46 228.10,119.00 231.89,119.00 C234.52,119.00 236.96,119.30 237.32,119.66 C238.57,120.91 235.75,123.00 232.82,123.00 C231.12,123.00 230.14,123.42 230.50,124.00 C230.84,124.55 232.13,125.00 233.36,125.00 C237.84,125.00 239.50,129.34 236.17,132.35 ZM 221.80 125.50 C221.53,132.68 221.29,133.53 219.46,133.79 C218.34,133.95 217.10,133.77 216.71,133.38 C216.32,132.99 216.00,128.24 216.00,122.83 C216.00,113.03 216.01,113.00 218.48,113.00 C221.64,113.00 222.18,115.07 221.80,125.50 ZM 158.79 128.47 C158.55,132.72 158.17,133.55 156.38,133.80 C153.73,134.18 153.00,132.39 153.00,125.54 C153.00,120.64 153.22,120.15 155.91,119.04 C161.62,116.67 166.88,120.02 161.29,122.47 C159.51,123.25 159.03,124.40 158.79,128.47 ZM 83.50 123.49 C83.50,131.82 83.24,133.52 81.91,133.78 C78.83,134.37 77.91,131.53 78.21,122.35 C78.49,113.65 78.54,113.50 81.00,113.50 C83.50,113.50 83.50,113.50 83.50,123.49 ZM 92.79 126.91 C92.54,132.67 92.24,133.54 90.46,133.79 C87.40,134.23 87.00,133.30 87.00,125.80 C87.00,120.60 87.37,118.80 88.51,118.36 C91.69,117.14 93.10,119.96 92.79,126.91 ZM 20.32 133.61 C20.02,131.75 20.20,129.46 20.73,128.52 C21.61,126.94 21.79,126.94 23.34,128.48 C24.25,129.40 25.00,131.01 25.00,132.07 C25.00,133.13 25.62,134.00 26.38,134.00 C26.66,134.00 27.01,134.10 27.36,134.26 C26.73,134.02 26.23,134.39 25.17,135.35 C24.02,136.39 21.18,136.96 18.52,136.99 C20.77,136.94 20.80,136.54 20.32,133.61 ZM 134.78 48.44 C131.28,50.89 128.33,50.13 130.92,47.45 C131.42,46.93 131.98,45.38 132.17,44.00 C132.39,42.30 133.22,41.40 134.75,41.18 C136.66,40.91 137.00,41.32 137.00,43.87 C137.00,45.85 136.24,47.42 134.78,48.44 ZM 20.67 119.33 C20.30,118.97 20.00,117.38 20.00,115.80 C20.00,112.70 22.24,111.12 24.26,112.80 C24.72,113.18 25.32,113.53 25.84,113.73 C25.18,114.48 24.86,116.19 25.39,117.56 C25.49,117.83 25.63,118.06 25.79,118.23 C25.33,118.28 25.00,118.58 25.00,119.00 C25.00,120.12 21.70,120.37 20.67,119.33 ZM 91.96 115.54 C90.41,117.41 88.10,117.41 87.38,115.55 C86.61,113.54 87.75,112.00 90.00,112.00 C92.50,112.00 93.46,113.74 91.96,115.54 ZM 33.00 99.47 C33.00,100.31 33.39,101.00 33.88,101.00 C35.14,101.00 37.40,98.06 36.69,97.35 C35.66,96.33 33.00,97.86 33.00,99.47 ZM 50.25 122.75 C49.99,123.54 50.81,124.00 52.50,124.00 C54.19,124.00 55.01,123.54 54.75,122.75 C54.52,122.06 53.51,121.50 52.50,121.50 C51.49,121.50 50.48,122.06 50.25,122.75 ZM 13.01 107.51 C12.40,108.89 12.05,113.71 11.97,119.00 C12.02,113.30 12.36,108.18 13.01,107.51 ZM 27.75 134.46 C28.21,134.73 28.65,135.08 28.98,135.47 C28.93,135.43 28.88,135.39 28.83,135.35 C28.39,134.95 28.05,134.65 27.75,134.46 ZM 13.20 135.80 C13.54,136.14 14.23,136.44 15.05,136.66 C14.24,136.47 13.58,136.18 13.20,135.80 ZM 34.20 137.00 C34.41,137.00 34.60,137.00 34.79,137.00 C34.59,137.00 34.40,137.00 34.20,137.00 Z" fill="rgb(35,59,64)"/>
<path d="M 179.38 129.38 C179.40,128.80 179.25,128.16 178.95,127.38 C178.43,126.00 178.00,123.79 178.00,122.47 C178.00,119.43 175.02,117.79 170.22,118.19 C167.58,118.41 166.42,119.02 166.17,120.33 C165.88,121.84 166.38,122.10 169.06,121.83 C171.01,121.63 172.47,122.00 172.73,122.75 C172.99,123.50 172.30,124.00 171.02,124.00 C164.53,124.00 162.80,129.67 168.25,133.04 C169.68,133.92 171.10,134.41 172.44,134.50 C169.60,134.78 166.64,134.03 165.25,132.24 C163.40,129.84 163.73,126.18 165.93,124.81 C167.71,123.70 167.73,123.52 166.18,122.36 C163.47,120.35 165.91,117.56 170.68,117.20 C176.34,116.78 179.00,119.20 179.49,125.22 C179.63,126.96 179.60,128.30 179.38,129.38 ZM 33.00 99.47 C33.00,97.86 35.66,96.33 36.69,97.35 C37.40,98.06 35.14,101.00 33.88,101.00 C33.39,101.00 33.00,100.31 33.00,99.47 ZM 50.25 122.75 C50.48,122.06 51.49,121.50 52.50,121.50 C53.51,121.50 54.52,122.06 54.75,122.75 C55.01,123.54 54.19,124.00 52.50,124.00 C50.81,124.00 49.99,123.54 50.25,122.75 ZM 26.25 118.25 C26.09,118.22 25.93,118.21 25.79,118.23 C25.63,118.06 25.49,117.83 25.39,117.56 C24.86,116.19 25.18,114.48 25.84,113.73 C26.09,113.83 26.32,113.90 26.50,113.91 C27.05,113.96 27.50,115.01 27.50,116.25 C27.50,117.52 26.95,118.39 26.25,118.25 ZM 180.67 33.33 C180.30,32.97 180.00,32.01 180.00,31.21 C180.00,30.03 180.28,29.99 181.50,31.00 C182.32,31.68 183.00,32.64 183.00,33.12 C183.00,34.16 181.62,34.28 180.67,33.33 ZM 121.50 49.00 C121.16,49.55 120.46,50.00 119.94,50.00 C119.42,50.00 119.00,49.55 119.00,49.00 C119.00,48.45 119.70,48.00 120.56,48.00 C121.42,48.00 121.84,48.45 121.50,49.00 ZM 113.00 57.00 C113.00,57.55 112.55,58.00 112.00,58.00 C111.45,58.00 111.00,57.55 111.00,57.00 C111.00,56.45 111.45,56.00 112.00,56.00 C112.55,56.00 113.00,56.45 113.00,57.00 ZM 178.20 131.90 C178.22,131.88 178.24,131.87 178.25,131.85 C178.23,131.87 178.21,131.90 178.19,131.93 C178.15,131.97 178.11,132.01 178.08,132.05 Z" fill="rgb(150,166,170)"/>
<path d="M 0.00 73.50 L 0.00 0.00 L 124.00 0.00 L 248.00 0.00 L 248.00 73.50 L 248.00 147.00 L 124.00 147.00 L 0.00 147.00 L 0.00 73.50 ZM 25.17 135.35 C26.87,133.81 27.13,133.81 28.83,135.35 C32.46,138.63 43.00,136.66 43.00,132.69 C43.00,132.14 41.88,130.21 40.50,128.41 C37.49,124.46 37.49,124.46 40.00,121.27 C43.19,117.21 42.70,111.45 38.85,107.86 C36.36,105.54 35.95,104.65 36.92,103.70 C37.88,102.76 38.56,103.01 40.04,104.83 C42.98,108.42 44.49,106.49 42.02,102.30 C40.52,99.77 40.23,98.43 40.98,97.52 C41.78,96.56 41.27,96.10 38.89,95.63 C33.19,94.49 32.37,94.83 30.73,99.00 C29.26,102.74 28.90,103.00 25.14,103.00 C22.93,103.00 20.84,102.55 20.50,102.00 C19.60,100.54 15.43,100.78 14.11,102.37 C13.48,103.13 13.23,104.43 13.55,105.27 C13.87,106.11 13.66,107.09 13.07,107.46 C11.51,108.42 11.63,134.23 13.20,135.80 C15.00,137.60 23.02,137.30 25.17,135.35 ZM 75.78 131.16 C76.02,130.45 75.01,130.00 73.21,130.00 C67.84,130.00 65.88,123.87 71.01,123.15 C77.22,122.29 76.64,118.00 70.32,118.00 C67.73,118.00 66.17,118.79 63.94,121.22 C62.32,123.00 61.00,123.91 61.00,123.26 C61.00,121.02 56.65,118.00 53.42,118.00 C49.37,118.00 46.18,120.62 45.41,124.57 C44.53,129.17 48.86,134.00 53.89,134.00 C57.37,134.00 60.00,132.62 60.00,130.80 C60.00,130.36 58.45,130.00 56.56,130.00 C54.67,130.00 52.84,129.55 52.50,129.00 C52.16,128.45 52.70,128.00 53.69,127.99 C54.69,127.99 56.74,127.34 58.25,126.55 C60.87,125.19 61.08,125.25 62.40,127.81 C64.14,131.17 66.89,133.66 69.50,134.24 C71.68,134.73 75.16,133.02 75.78,131.16 ZM 178.19 131.93 C179.40,130.49 179.76,128.62 179.49,125.22 C179.00,119.20 176.34,116.78 170.68,117.20 C165.91,117.56 163.47,120.35 166.18,122.36 C167.73,123.52 167.71,123.70 165.93,124.81 C163.73,126.18 163.40,129.84 165.25,132.24 C167.74,135.47 175.34,135.29 178.19,131.93 ZM 83.50 123.49 C83.50,113.50 83.50,113.50 81.00,113.50 C78.54,113.50 78.49,113.65 78.21,122.35 C77.91,131.53 78.83,134.37 81.91,133.78 C83.24,133.52 83.50,131.82 83.50,123.49 ZM 92.79 126.91 C93.10,119.96 91.69,117.14 88.51,118.36 C87.37,118.80 87.00,120.60 87.00,125.80 C87.00,133.30 87.40,134.23 90.46,133.79 C92.24,133.54 92.54,132.67 92.79,126.91 ZM 100.80 128.24 C101.06,123.82 101.41,123.00 103.05,123.00 C104.67,123.00 105.00,123.71 105.02,127.25 C105.03,132.37 106.10,134.32 108.62,133.84 C110.18,133.54 110.55,132.42 110.80,127.33 C111.06,121.89 110.83,120.99 108.82,119.59 C106.24,117.78 102.32,117.55 98.57,118.98 C96.18,119.88 96.00,120.40 96.00,126.31 C96.00,133.05 96.47,134.25 98.95,133.78 C100.07,133.56 100.58,132.01 100.80,128.24 ZM 126.96 132.54 C128.83,130.30 127.33,129.07 123.48,129.70 C118.93,130.43 118.86,128.44 123.40,127.58 C128.52,126.62 129.79,124.54 127.31,121.20 C124.45,117.36 118.93,116.98 115.51,120.40 C114.13,121.78 113.00,123.85 113.00,125.00 C113.00,127.64 115.55,132.65 117.23,133.33 C119.93,134.42 125.80,133.94 126.96,132.54 ZM 146.79 126.96 C147.04,121.35 147.39,120.30 149.28,119.47 C150.50,118.94 151.64,117.69 151.83,116.71 C152.13,115.09 151.41,114.94 144.33,115.21 C138.17,115.44 136.50,115.82 136.50,117.00 C136.50,117.82 137.51,118.94 138.75,119.49 C140.70,120.34 141.00,121.23 141.00,126.04 C141.00,131.75 142.30,134.28 144.98,133.77 C146.12,133.55 146.57,131.84 146.79,126.96 ZM 158.79 128.47 C159.03,124.40 159.51,123.25 161.29,122.47 C166.88,120.02 161.62,116.67 155.91,119.04 C153.22,120.15 153.00,120.64 153.00,125.54 C153.00,132.39 153.73,134.18 156.38,133.80 C158.17,133.55 158.55,132.72 158.79,128.47 ZM 193.79 128.88 C195.06,126.34 196.18,122.96 196.29,121.38 C196.47,118.94 196.13,118.50 194.06,118.50 C192.16,118.50 191.45,119.20 190.80,121.70 C189.64,126.17 188.29,126.60 187.46,122.76 C186.54,118.53 184.79,117.21 182.24,118.83 C181.25,119.46 181.41,120.89 182.98,125.46 C184.09,128.66 185.51,131.92 186.16,132.69 C188.31,135.28 191.38,133.74 193.79,128.88 ZM 211.96 132.54 C213.81,130.32 212.34,129.07 208.61,129.68 C206.76,129.98 204.98,129.78 204.65,129.24 C204.30,128.68 205.74,127.98 207.89,127.63 C212.74,126.86 214.56,124.91 213.05,122.09 C210.68,117.67 204.88,116.73 200.63,120.07 C194.84,124.63 199.00,134.00 206.83,134.00 C209.05,134.00 211.28,133.37 211.96,132.54 ZM 221.80 125.50 C222.18,115.07 221.64,113.00 218.48,113.00 C216.01,113.00 216.00,113.03 216.00,122.83 C216.00,128.24 216.32,132.99 216.71,133.38 C217.10,133.77 218.34,133.95 219.46,133.79 C221.29,133.53 221.53,132.68 221.80,125.50 ZM 236.17 132.35 C239.50,129.34 237.84,125.00 233.36,125.00 C232.13,125.00 230.84,124.55 230.50,124.00 C230.14,123.42 231.12,123.00 232.82,123.00 C235.75,123.00 238.57,120.91 237.32,119.66 C236.96,119.30 234.52,119.00 231.89,119.00 C228.10,119.00 226.79,119.46 225.57,121.20 C224.26,123.08 224.23,123.71 225.38,125.45 C226.12,126.58 227.94,127.64 229.42,127.82 C233.59,128.32 231.93,130.53 227.67,130.16 C223.90,129.84 223.09,130.69 225.20,132.80 C226.97,134.57 234.03,134.28 236.17,132.35 ZM 91.96 115.54 C93.46,113.74 92.50,112.00 90.00,112.00 C87.75,112.00 86.61,113.54 87.38,115.55 C88.10,117.41 90.41,117.41 91.96,115.54 ZM 122.57 102.92 C141.27,99.51 156.96,82.94 158.66,64.79 C159.06,60.42 158.89,58.05 158.13,57.58 C157.48,57.18 157.00,57.52 157.00,58.36 C157.00,59.18 155.80,61.28 154.33,63.02 C151.96,65.84 151.23,66.13 147.95,65.61 C144.74,65.09 143.02,65.72 135.18,70.26 C128.31,74.23 125.58,76.44 123.93,79.36 C121.78,83.17 121.77,83.28 123.53,88.47 C126.16,96.18 125.50,97.00 116.78,96.99 C108.95,96.99 103.57,95.87 100.45,93.59 C98.53,92.19 98.54,92.12 100.92,89.58 C103.74,86.58 101.91,85.98 98.09,88.65 C96.79,89.56 94.16,90.44 92.24,90.61 C87.37,91.05 87.05,91.80 90.50,94.68 C94.47,97.99 102.78,101.72 108.71,102.86 C115.37,104.13 115.88,104.14 122.57,102.92 ZM 88.34 84.50 C104.06,80.41 144.15,59.65 144.80,55.27 C145.37,51.52 142.03,51.75 135.10,55.93 C124.19,62.52 108.39,69.50 92.22,74.90 C83.81,77.70 76.29,80.00 75.52,80.00 C74.74,80.00 73.67,79.23 73.15,78.30 C72.34,76.86 71.94,76.80 70.60,77.92 C68.32,79.81 68.62,81.55 71.63,83.93 C74.82,86.43 80.21,86.62 88.34,84.50 ZM 79.50 66.00 C79.07,62.34 79.18,60.00 79.77,60.00 C81.89,60.00 85.77,64.12 86.34,66.97 C87.08,70.65 88.36,70.79 91.41,67.50 C93.08,65.70 94.77,65.00 97.42,65.00 C100.64,65.00 101.27,64.59 102.48,61.69 C103.25,59.87 105.02,57.86 106.43,57.21 C108.63,56.21 109.00,55.40 109.00,51.57 C109.00,48.38 108.50,46.80 107.25,46.05 C105.58,45.05 105.58,44.95 107.25,43.95 C109.54,42.57 109.41,41.07 106.71,37.88 C103.87,34.51 100.90,33.00 97.12,33.00 C92.26,33.00 92.57,31.25 97.93,28.54 C103.83,25.55 105.84,25.37 106.68,27.75 C107.55,30.22 111.12,34.00 112.58,34.00 C113.26,34.00 115.70,35.58 118.00,37.50 C120.30,39.42 122.39,41.00 122.63,41.00 C122.87,41.00 123.89,39.08 124.90,36.74 C125.90,34.39 127.46,31.86 128.36,31.11 C129.26,30.37 130.00,29.14 130.00,28.38 C130.00,27.62 130.36,27.00 130.80,27.00 C132.47,27.00 140.64,32.78 143.10,35.71 C147.56,41.01 153.00,42.77 153.00,38.92 C153.00,35.48 141.99,25.36 134.30,21.73 C127.91,18.72 126.83,18.53 116.50,18.56 C107.45,18.58 104.48,18.99 99.75,20.87 C88.97,25.14 80.19,34.26 75.56,46.00 C73.65,50.82 72.35,65.83 73.69,67.52 C74.46,68.49 79.12,71.84 79.85,71.95 C80.04,71.98 79.88,69.30 79.50,66.00 ZM 173.89 67.75 C174.35,66.51 175.06,60.33 175.47,54.01 L 176.20 42.51 L 182.22 36.87 C185.55,33.75 188.04,30.62 187.79,29.86 C187.06,27.64 180.56,27.69 175.57,29.97 L 171.00 32.05 L 159.68 26.52 C153.46,23.49 147.63,21.00 146.74,21.00 C142.59,21.00 143.99,23.70 151.90,30.97 L 160.15 38.55 L 155.60 41.82 C151.28,44.92 150.84,45.03 147.10,43.91 C144.93,43.26 142.34,43.04 141.35,43.42 C139.79,44.02 140.03,44.55 143.25,47.59 C145.51,49.72 147.39,52.71 148.08,55.28 C148.71,57.60 149.40,60.10 149.61,60.83 C150.36,63.40 152.51,61.32 154.04,56.56 C155.22,52.88 156.38,51.34 159.04,49.93 C164.57,46.98 166.00,47.37 166.00,51.82 C166.00,55.39 167.57,65.96 168.51,68.75 C169.23,70.87 172.98,70.18 173.89,67.75 ZM 113.00 57.00 C113.00,56.45 112.55,56.00 112.00,56.00 C111.45,56.00 111.00,56.45 111.00,57.00 C111.00,57.55 111.45,58.00 112.00,58.00 C112.55,58.00 113.00,57.55 113.00,57.00 ZM 121.50 49.00 C121.84,48.45 121.42,48.00 120.56,48.00 C119.70,48.00 119.00,48.45 119.00,49.00 C119.00,49.55 119.42,50.00 119.94,50.00 C120.46,50.00 121.16,49.55 121.50,49.00 ZM 134.78 48.44 C136.24,47.42 137.00,45.85 137.00,43.87 C137.00,41.32 136.66,40.91 134.75,41.18 C133.22,41.40 132.39,42.30 132.17,44.00 C131.98,45.38 131.42,46.93 130.92,47.45 C128.33,50.13 131.28,50.89 134.78,48.44 Z" fill="rgb(251,253,253)"/>
</g>
</svg>